<svg width="26" height="26" viewBox="0 0 26 26" fill="none" xmlns="http://www.w3.org/2000/svg">
<path d="M16.1519 12.9996C16.1519 11.259 14.7408 9.84819 13.0005 9.84819C11.2599 9.84819 9.84906 11.259 9.84906 12.9996C9.84906 14.74 11.2599 16.151 13.0005 16.151C14.7408 16.151 16.1519 14.74 16.1519 12.9996Z" fill="#EAEAEA"/>
<path fill-rule="evenodd" clip-rule="evenodd" d="M12.6854 5.24899C12.4942 5.24891 12.317 5.24883 12.1524 5.24908V5.24672C10.3903 5.24869 10.0523 5.26051 9.18017 5.2999C8.25838 5.34225 7.75789 5.49588 7.42463 5.62588C6.98343 5.79763 6.66829 6.00247 6.33739 6.33337C6.00649 6.66427 5.80126 6.97941 5.6299 7.42061C5.50049 7.75387 5.34647 8.25416 5.30432 9.17595C5.25902 10.1726 5.24995 10.4704 5.24995 12.9951C5.24995 15.5198 5.25902 15.8191 5.30432 16.8158C5.34627 17.7376 5.50049 18.2379 5.6299 18.5707C5.80165 19.0121 6.00649 19.3265 6.33739 19.6574C6.66829 19.9883 6.98343 20.1931 7.42463 20.3645C7.75809 20.4939 8.25838 20.6479 9.18017 20.6904C10.1768 20.7358 10.476 20.7456 13.0005 20.7456C15.5248 20.7456 15.8242 20.7358 16.8208 20.6904C17.7426 20.6483 18.2433 20.4947 18.5761 20.3647C19.0175 20.1933 19.3317 19.9885 19.6626 19.6576C19.9935 19.3269 20.1987 19.0127 20.3701 18.5715C20.4995 18.2386 20.6535 17.7384 20.6957 16.8166C20.741 15.8199 20.7508 15.5205 20.7508 12.9974C20.7508 10.4743 20.741 10.1749 20.6957 9.17831C20.6537 8.25652 20.4995 7.75623 20.3701 7.42337C20.1983 6.98217 19.9935 6.66703 19.6626 6.33613C19.3319 6.00523 19.0173 5.80038 18.5761 5.62903C18.2429 5.49962 17.7426 5.3456 16.8208 5.30345C15.824 5.25814 15.5248 5.24908 13.0005 5.24908C12.8914 5.24908 12.7864 5.24904 12.6854 5.24899ZM16.9126 7.953C16.9126 7.32646 17.4207 6.81888 18.0471 6.81888C18.6734 6.81888 19.1816 7.32666 19.1816 7.953C19.1816 8.57935 18.6734 9.08751 18.0471 9.08751C17.4207 9.08751 16.9126 8.57935 16.9126 7.953ZM8.14532 12.9996C8.14532 10.3183 10.3192 8.14445 13.0005 8.14445C15.6817 8.14445 17.8548 10.3183 17.8548 12.9996C17.8548 15.6809 15.6817 17.8538 13.0005 17.8538C10.3192 17.8538 8.14532 15.6809 8.14532 12.9996Z" fill="#EAEAEA"/>
<path fill-rule="evenodd" clip-rule="evenodd" d="M0.708458 3.54906C0 4.93949 0 6.75966 0 10.4V15.6C0 19.2403 0 21.0605 0.708458 22.4509C1.33163 23.674 2.32601 24.6684 3.54906 25.2915C4.93949 26 6.75966 26 10.4 26H15.6C19.2403 26 21.0605 26 22.4509 25.2915C23.674 24.6684 24.6684 23.674 25.2915 22.4509C26 21.0605 26 19.2403 26 15.6V10.4C26 6.75966 26 4.93949 25.2915 3.54906C24.6684 2.32601 23.674 1.33163 22.4509 0.708458C21.0605 0 19.2403 0 15.6 0H10.4C6.75966 0 4.93949 0 3.54906 0.708458C2.32601 1.33163 1.33163 2.32601 0.708458 3.54906ZM9.10217 3.60247C10.1106 3.55657 10.4329 3.54535 13.0005 3.54535H12.9975C15.5659 3.54535 15.887 3.55657 16.8954 3.60247C17.9019 3.64856 18.5893 3.8079 19.192 4.0417C19.8144 4.28298 20.3403 4.606 20.8662 5.13189C21.3921 5.65739 21.7151 6.18486 21.9574 6.80667C22.1898 7.40781 22.3494 8.09482 22.3966 9.1013C22.4419 10.1098 22.4538 10.432 22.4538 12.9996C22.4538 15.5672 22.4419 15.8887 22.3966 16.8971C22.3494 17.9032 22.1898 18.5904 21.9574 19.1918C21.7151 19.8134 21.3921 20.3408 20.8662 20.8663C20.3409 21.3922 19.8142 21.716 19.1926 21.9575C18.5911 22.1913 17.9033 22.3507 16.8968 22.3967C15.8884 22.4426 15.5671 22.4539 12.9993 22.4539C10.4319 22.4539 10.1098 22.4426 9.10138 22.3967C8.0951 22.3507 7.40789 22.1913 6.80636 21.9575C6.18494 21.716 5.65747 21.3922 5.13217 20.8663C4.60647 20.3408 4.28345 19.8134 4.04178 19.1916C3.80818 18.5904 3.64884 17.9034 3.60255 16.8969C3.55685 15.8885 3.54543 15.5672 3.54543 12.9996C3.54543 10.432 3.55725 10.1096 3.60235 9.1011C3.64765 8.09501 3.8072 7.40781 4.04158 6.80648C4.28385 6.18486 4.60687 5.65739 5.13276 5.13189C5.65826 4.60619 6.18573 4.28317 6.80754 4.0417C7.40868 3.8079 8.09569 3.64856 9.10217 3.60247Z" fill="#EAEAEA"/>
</svg>
