<svg width="26" height="26" viewBox="0 0 26 26" fill="none" xmlns="http://www.w3.org/2000/svg">
<path fill-rule="evenodd" clip-rule="evenodd" d="M11 3C6.58172 3 3 6.58172 3 11C3 15.4183 6.58172 19 11 19C15.4183 19 19 15.4183 19 11C19 6.58172 15.4183 3 11 3ZM1 11C1 5.47715 5.47715 1 11 1C16.5228 1 21 5.47715 21 11C21 13.4013 20.1536 15.6049 18.7429 17.3287L24.7071 23.2929C25.0976 23.6834 25.0976 24.3166 24.7071 24.7071C24.3166 25.0976 23.6834 25.0976 23.2929 24.7071L17.3287 18.7429C15.6049 20.1536 13.4013 21 11 21C5.47715 21 1 16.5228 1 11Z" fill="#EAEAEA"/>
</svg>
