<svg width="26" height="26" viewBox="0 0 26 26" fill="none" xmlns="http://www.w3.org/2000/svg">
<path fill-rule="evenodd" clip-rule="evenodd" d="M12.8971 1H13.1029C13.786 0.999987 14.3561 0.999976 14.8219 1.038C15.3077 1.07766 15.7639 1.16341 16.1952 1.38299C16.8569 1.71988 17.3949 2.25744 17.7321 2.91862C17.9518 3.34956 18.0377 3.80529 18.0773 4.2907C18.0911 4.45919 18.0999 4.64135 18.1055 4.83758C18.3755 4.84189 18.6202 4.85055 18.8408 4.86799C19.2997 4.90427 19.7309 4.98268 20.1443 5.18171C20.7813 5.48845 21.311 5.97997 21.6643 6.59211C21.8935 6.98931 22.0036 7.41315 22.0737 7.86777C22.1407 8.30237 22.1802 8.8348 22.2273 9.47058L22.9056 18.6203C22.9596 19.3487 23.0046 19.9546 22.9996 20.45C22.9945 20.965 22.937 21.4521 22.7294 21.9173C22.4124 22.6275 21.8686 23.2125 21.1832 23.5809C20.7342 23.8221 20.2523 23.9154 19.7387 23.9585C19.2446 24 18.6366 24 17.9056 24H8.09443C7.36341 24 6.75539 24 6.26131 23.9585C5.7477 23.9154 5.26575 23.8221 4.81682 23.5809C4.13139 23.2125 3.58759 22.6275 3.27062 21.9173C3.06301 21.4521 3.00548 20.965 3.00037 20.45C2.99545 19.9546 3.04038 19.3488 3.09439 18.6203L3.77272 9.4706C3.81984 8.83481 3.8593 8.30237 3.92633 7.86777C3.99644 7.41315 4.10655 6.98931 4.33574 6.59211C4.68896 5.97997 5.21868 5.48845 5.85575 5.18171C6.26913 4.98268 6.70029 4.90427 7.15923 4.86799C7.3798 4.85055 7.62454 4.84189 7.89448 4.83758C7.90009 4.64135 7.90888 4.45919 7.92265 4.2907C7.96235 3.80529 8.04817 3.34956 8.26793 2.91862C8.6051 2.25744 9.14311 1.71988 9.80484 1.38299C10.2361 1.16341 10.6923 1.07766 11.1781 1.038C11.6439 0.999976 12.214 0.999987 12.8971 1ZM7.88462 6.75467V8.98611C7.88462 9.51538 8.31404 9.94444 8.84376 9.94444C9.37347 9.94444 9.80289 9.51538 9.80289 8.98611V6.75H16.1971V8.98611C16.1971 9.51538 16.6265 9.94444 17.1562 9.94444C17.686 9.94444 18.1154 9.51538 18.1154 8.98611V6.75466C18.3375 6.75855 18.5247 6.76566 18.6895 6.77869C19.0318 6.80575 19.1987 6.85403 19.3115 6.90835C19.6011 7.04778 19.8419 7.2712 20.0024 7.54945C20.065 7.65787 20.1255 7.82052 20.1778 8.15967C20.2319 8.51042 20.2664 8.96677 20.317 9.6493L20.9896 18.7215C21.0473 19.5007 21.0855 20.0258 21.0815 20.431C21.0775 20.8258 21.0322 21.014 20.9774 21.1366C20.8333 21.4595 20.5862 21.7254 20.2746 21.8928C20.1562 21.9564 19.9718 22.0155 19.578 22.0486C19.1739 22.0825 18.6469 22.0833 17.865 22.0833H8.13503C7.35308 22.0833 6.82615 22.0825 6.42199 22.0486C6.02822 22.0155 5.84376 21.9564 5.72539 21.8928C5.41383 21.7254 5.16665 21.4595 5.02257 21.1366C4.96783 21.014 4.92246 20.8258 4.91854 20.431C4.91452 20.0258 4.95265 19.5007 5.01042 18.7215L5.68299 9.6493C5.73359 8.96677 5.76813 8.51042 5.82222 8.15967C5.87452 7.82052 5.93503 7.65787 5.99759 7.54945C6.15814 7.2712 6.39892 7.04778 6.6885 6.90835C6.80134 6.85403 6.96816 6.80575 7.31052 6.77869C7.47526 6.76566 7.6625 6.75855 7.88462 6.75467ZM16.1863 4.83333H9.81367C9.81833 4.6912 9.825 4.5636 9.83455 4.44678C9.86455 4.0799 9.91811 3.90448 9.97712 3.78877C10.1304 3.48823 10.3749 3.24389 10.6757 3.09075C10.7915 3.03179 10.9671 2.97828 11.3343 2.9483C11.7127 2.91741 12.204 2.91667 12.9361 2.91667H13.0639C13.796 2.91667 14.2873 2.91741 14.6657 2.9483C15.0329 2.97828 15.2085 3.03179 15.3243 3.09075C15.6251 3.24389 15.8696 3.48823 16.0229 3.78877C16.0819 3.90448 16.1355 4.0799 16.1655 4.44678C16.175 4.5636 16.1817 4.6912 16.1863 4.83333Z" fill="#EAEAEA"/>
</svg>
