<svg width="26" height="26" viewBox="0 0 26 26" fill="none" xmlns="http://www.w3.org/2000/svg">
<path fill-rule="evenodd" clip-rule="evenodd" d="M0.708458 3.54906C0 4.93949 0 6.75966 0 10.4V15.6C0 19.2403 0 21.0605 0.708458 22.4509C1.33163 23.674 2.32601 24.6684 3.54906 25.2915C4.93949 26 6.75966 26 10.4 26H15.6C19.2403 26 21.0605 26 22.4509 25.2915C23.674 24.6684 24.6684 23.674 25.2915 22.4509C26 21.0605 26 19.2403 26 15.6V10.4C26 6.75966 26 4.93949 25.2915 3.54906C24.6684 2.32601 23.674 1.33163 22.4509 0.708458C21.0605 0 19.2403 0 15.6 0H10.4C6.75966 0 4.93949 0 3.54906 0.708458C2.32601 1.33163 1.33163 2.32601 0.708458 3.54906ZM20.6149 9.8397C20.6149 15.081 16.6247 21.125 9.32956 21.125V21.1219C7.17436 21.1247 5.06386 20.5073 3.25 19.3434C4.28847 19.4686 5.34144 19.3879 6.34867 19.1058C7.35591 18.8237 8.29764 18.3458 9.12 17.6994C8.29232 17.6837 7.49021 17.4098 6.82582 16.9159C6.16144 16.4221 5.66797 15.733 5.41442 14.9449C6.00875 15.0594 6.62142 15.0361 7.20535 14.8769C6.30774 14.6955 5.50049 14.2093 4.92051 13.5007C4.34053 12.792 4.02353 11.9045 4.02328 10.9888V10.9385C4.57477 11.2462 5.19226 11.4165 5.82349 11.435C4.98372 10.8742 4.38925 10.0145 4.16111 9.03079C3.93296 8.04712 4.08831 7.01347 4.59551 6.14031C5.59141 7.36549 6.83381 8.36757 8.24208 9.0815C9.65034 9.79542 11.193 10.2052 12.7699 10.2843C12.5725 9.43403 12.6609 8.54239 13.0214 7.74737C13.3818 6.95236 13.9942 6.29831 14.7638 5.88642C15.5335 5.47454 16.4174 5.32778 17.2788 5.46887C18.1402 5.60996 18.9312 6.03103 19.5292 6.66691C20.4174 6.49182 21.2692 6.16622 22.0478 5.70417C21.7517 6.62269 21.132 7.40234 20.304 7.89798C21.0903 7.80521 21.8583 7.59485 22.5821 7.27394C22.0496 8.07033 21.3795 8.76554 20.6033 9.32701C20.6149 9.49713 20.6149 9.66803 20.6149 9.8397Z" fill="#EAEAEA"/>
</svg>
