<svg width="26" height="26" viewBox="0 0 26 26" fill="none" xmlns="http://www.w3.org/2000/svg">
<path fill-rule="evenodd" clip-rule="evenodd" d="M7 0C3.13401 0 0 3.13401 0 7V19C0 22.866 3.13401 26 7 26H19C22.866 26 26 22.866 26 19V7C26 3.13401 22.866 0 19 0H7ZM3 9.81142C3 5.21525 6.48874 1 13.0487 1C18.3281 1 22.4303 4.59578 22.4466 9.40202C22.4466 14.4154 19.1346 18.455 14.5509 18.455C13.01 18.455 11.5633 17.6944 11.0622 16.7866C11.0622 16.7866 10.3006 19.5663 10.1151 20.252C9.6049 22.1328 7.78581 24.7357 7.63764 24.9307C7.545 25.052 7.37897 25.0057 7.35053 24.8571C7.30413 24.5886 6.76693 21.4668 7.23983 19.5392C7.51967 18.4008 9.02465 12.3046 9.02465 12.3046C9.02465 12.3046 8.56966 11.4346 8.56966 10.1459C8.56966 8.11788 9.80408 6.60733 11.3253 6.60733C12.615 6.60733 13.2462 7.53408 13.2462 8.65494C13.2462 9.44734 12.9098 10.4866 12.555 11.5828C12.3504 12.2151 12.1396 12.8663 11.9837 13.5001C11.6305 14.9551 12.7438 16.1312 14.2383 16.1312C16.9384 16.1312 19.0165 13.4071 19.0165 9.46938C19.0165 5.98485 16.3999 3.5487 12.6598 3.5487C8.33481 3.5487 5.79308 6.66125 5.79308 9.86669C5.79308 11.1178 6.29412 12.4514 6.92563 13.1833C7.04526 13.323 7.06457 13.4519 7.02745 13.6005C6.97886 13.7862 6.90963 14.0551 6.84044 14.3239C6.73688 14.7263 6.63339 15.1283 6.59929 15.2505C6.53514 15.5191 6.37809 15.5745 6.08932 15.4443C4.18788 14.6009 3 11.943 3 9.81142Z" fill="#EAEAEA"/>
</svg>
