<svg width="26" height="26" viewBox="0 0 26 26" fill="none" xmlns="http://www.w3.org/2000/svg">
<g clip-path="url(#clip0_201_18)">
<g filter="url(#filter0_d_201_18)">
<path fill-rule="evenodd" clip-rule="evenodd" d="M13 3C11.0276 3 9.42857 4.49238 9.42857 6.33333C9.42857 8.17428 11.0276 9.66667 13 9.66667C14.9724 9.66667 16.5714 8.17428 16.5714 6.33333C16.5714 4.49238 14.9724 3 13 3ZM7.28571 6.33333C7.28571 3.38781 9.84409 1 13 1C16.1559 1 18.7143 3.38781 18.7143 6.33333C18.7143 9.27885 16.1559 11.6667 13 11.6667C9.84409 11.6667 7.28571 9.27885 7.28571 6.33333ZM3 21.8333C3 17.6912 6.59771 14.3333 11.0357 14.3333H14.9643C19.4023 14.3333 23 17.6912 23 21.8333C23 23.5822 21.481 25 19.6071 25H6.39286C4.51903 25 3 23.5822 3 21.8333ZM11.0357 16.3333C7.78118 16.3333 5.14286 18.7958 5.14286 21.8333C5.14286 22.4777 5.7025 23 6.39286 23H19.6071C20.2975 23 20.8571 22.4777 20.8571 21.8333C20.8571 18.7958 18.2188 16.3333 14.9643 16.3333H11.0357Z" fill="#EAEAEA"/>
</g>
</g>
<defs>
<filter id="filter0_d_201_18" x="-1" y="1" width="28" height="32" filterUnits="userSpaceOnUse" color-interpolation-filters="sRGB">
<feFlood flood-opacity="0" result="BackgroundImageFix"/>
<feColorMatrix in="SourceAlpha" type="matrix" values="0 0 0 0 0 0 0 0 0 0 0 0 0 0 0 0 0 0 127 0" result="hardAlpha"/>
<feOffset dy="4"/>
<feGaussianBlur stdDeviation="2"/>
<feComposite in2="hardAlpha" operator="out"/>
<feColorMatrix type="matrix" values="0 0 0 0 0 0 0 0 0 0 0 0 0 0 0 0 0 0 0.25 0"/>
<feBlend mode="normal" in2="BackgroundImageFix" result="effect1_dropShadow_201_18"/>
<feBlend mode="normal" in="SourceGraphic" in2="effect1_dropShadow_201_18" result="shape"/>
</filter>
<clipPath id="clip0_201_18">
<rect width="20" height="24" fill="white" transform="translate(3 1)"/>
</clipPath>
</defs>
</svg>
