<svg width="26" height="26" viewBox="0 0 26 26" fill="none" xmlns="http://www.w3.org/2000/svg">
<path fill-rule="evenodd" clip-rule="evenodd" d="M7 0C3.13401 0 0 3.13401 0 7V19C0 22.866 3.13401 26 7 26H12.6262H19C22.866 26 26 22.866 26 19V7C26 3.13401 22.866 0 19 0H16.2041H7ZM16.2041 0C12.5138 0 10.102 2.23651 10.102 6.28545V9.84466H6V14.5146H10.102V25.8037C10.9245 25.9328 11.7675 26 12.6262 26C13.485 26 14.328 25.9328 15.1505 25.8037V14.5146H18.9148L19.6311 9.84466H15.1505V6.81418C15.1505 5.53658 15.7764 4.29127 17.7832 4.29127H19.8204V0.315555C19.8204 0.315555 17.9716 0 16.2041 0Z" fill="#EAEAEA"/>
</svg>
